<svg xmlns="http://www.w3.org/2000/svg" viewBox="0 0 24 24" width="100%" height="100%"><path d="M 3 1 L 13 1 L 17 5 L 17 19 L 3 19 Z M 4.5 2.5 L 4.5 17.5 L 15.5 17.5 L 15.5 5.75 L 12.25 2.5 Z" fill="#A0A0A0" fill-rule="evenodd" /><path d="M 7 5 L 17 5 L 21 9 L 21 23 L 7 23 Z M 8.5 6.5 L 8.5 21.5 L 19.5 21.5 L 19.5 9.75 L 16.25 6.5 Z" fill="#1A2010" fill-rule="evenodd" /><path d="M 7 5 L 17 5 L 21 9 L 21 23 L 7 23 Z M 8.5 6.5 L 8.5 21.5 L 19.5 21.5 L 19.5 9.75 L 16.25 6.5 Z" fill="#1A2010" fill-rule="evenodd" /><path d="M 7 5 L 17 5 L 21 9 L 21 23 L 7 23 Z M 8.5 6.5 L 8.5 21.5 L 19.5 21.5 L 19.5 9.75 L 16.25 6.5 Z" fill="#1A2010" fill-rule="evenodd" /><path d="M 7 5 L 17 5 L 21 9 L 21 23 L 7 23 Z M 8.5 6.5 L 8.5 21.5 L 19.5 21.5 L 19.5 9.75 L 16.25 6.5 Z" fill="#1A2010" fill-rule="evenodd" /><path d="M 7 5 L 17 5 L 21 9 L 21 23 L 7 23 Z M 8.5 6.5 L 8.5 21.5 L 19.5 21.5 L 19.5 9.75 L 16.25 6.5 Z" fill="#1A2010" fill-rule="evenodd" /><path d="M 7 5 L 17 5 L 21 9 L 21 23 L 7 23 Z M 8.5 6.5 L 8.5 21.5 L 19.5 21.5 L 19.5 9.75 L 16.25 6.5 Z" fill="#1A2010" fill-rule="evenodd" /><path d="M 7 5 L 17 5 L 21 9 L 21 23 L 7 23 Z M 8.5 6.5 L 8.5 21.5 L 19.5 21.5 L 19.5 9.75 L 16.25 6.5 Z" fill="#1A2010" fill-rule="evenodd" /><path d="M 7 5 L 17 5 L 21 9 L 21 23 L 7 23 Z M 8.5 6.5 L 8.5 21.5 L 19.5 21.5 L 19.5 9.75 L 16.25 6.5 Z" fill="#1A2010" fill-rule="evenodd" /><path d="M 7 5 L 17 5 L 21 9 L 21 23 L 7 23 Z M 8.5 6.5 L 8.5 21.5 L 19.5 21.5 L 19.5 9.75 L 16.25 6.5 Z" fill="#FAFAFA" fill-rule="evenodd" /><rect x="9" y="13" width="6" height="1.5" fill="#1A2010" rx="0.4" ry="0.4" /><path d="M 13 10.5 L 16.5 13.75 L 13 17 Z" fill="#1A2010" /><rect x="9" y="13" width="6" height="1.5" fill="#1A2010" rx="0.4" ry="0.4" /><path d="M 13 10.5 L 16.5 13.75 L 13 17 Z" fill="#1A2010" /><rect x="9" y="13" width="6" height="1.5" fill="#1A2010" rx="0.4" ry="0.4" /><path d="M 13 10.5 L 16.5 13.75 L 13 17 Z" fill="#1A2010" /><rect x="9" y="13" width="6" height="1.5" fill="#1A2010" rx="0.4" ry="0.4" /><path d="M 13 10.5 L 16.5 13.75 L 13 17 Z" fill="#1A2010" /><rect x="9" y="13" width="6" height="1.5" fill="#1A2010" rx="0.4" ry="0.4" /><path d="M 13 10.5 L 16.5 13.75 L 13 17 Z" fill="#1A2010" /><rect x="9" y="13" width="6" height="1.5" fill="#1A2010" rx="0.4" ry="0.4" /><path d="M 13 10.5 L 16.5 13.75 L 13 17 Z" fill="#1A2010" /><rect x="9" y="13" width="6" height="1.5" fill="#1A2010" rx="0.4" ry="0.4" /><path d="M 13 10.5 L 16.5 13.75 L 13 17 Z" fill="#1A2010" /><rect x="9" y="13" width="6" height="1.5" fill="#1A2010" rx="0.4" ry="0.4" /><path d="M 13 10.5 L 16.5 13.75 L 13 17 Z" fill="#1A2010" /><rect x="9" y="13" width="6" height="1.5" fill="#AAD400" rx="0.4" ry="0.4" /><path d="M 13 10.5 L 16.5 13.75 L 13 17 Z" fill="#AAD400" /></svg>