<svg xmlns="http://www.w3.org/2000/svg" viewBox="0 0 24 24" width="100%" height="100%"><rect x="3.0" y="6.0" width="18" height="1.5" fill="#FAFAFA" rx="0.4" ry="0.4" /><rect x="6.0" y="11.0" width="15" height="1.5" fill="#FAFAFA" rx="0.4" ry="0.4" /><rect x="9.0" y="16.0" width="12" height="1.5" fill="#FAFAFA" rx="0.4" ry="0.4" /><rect x="3.0" y="6.0" width="1.5" height="11.5" fill="#FAFAFA" rx="0.4" ry="0.4" /><path d="M 14 14 L 15 13 L 19 17 L 18 18 Z M 18 13 L 19 14 L 15 18 L 14 17 Z" fill="#1A2010" /><path d="M 14 14 L 15 13 L 19 17 L 18 18 Z M 18 13 L 19 14 L 15 18 L 14 17 Z" fill="#1A2010" /><path d="M 14 14 L 15 13 L 19 17 L 18 18 Z M 18 13 L 19 14 L 15 18 L 14 17 Z" fill="#1A2010" /><path d="M 14 14 L 15 13 L 19 17 L 18 18 Z M 18 13 L 19 14 L 15 18 L 14 17 Z" fill="#1A2010" /><path d="M 14 14 L 15 13 L 19 17 L 18 18 Z M 18 13 L 19 14 L 15 18 L 14 17 Z" fill="#1A2010" /><path d="M 14 14 L 15 13 L 19 17 L 18 18 Z M 18 13 L 19 14 L 15 18 L 14 17 Z" fill="#1A2010" /><path d="M 14 14 L 15 13 L 19 17 L 18 18 Z M 18 13 L 19 14 L 15 18 L 14 17 Z" fill="#1A2010" /><path d="M 14 14 L 15 13 L 19 17 L 18 18 Z M 18 13 L 19 14 L 15 18 L 14 17 Z" fill="#1A2010" /><path d="M 14 14 L 15 13 L 19 17 L 18 18 Z M 18 13 L 19 14 L 15 18 L 14 17 Z" fill="#FF4D2E" /></svg>