<svg xmlns="http://www.w3.org/2000/svg" viewBox="0 0 24 24" width="100%" height="100%"><path d="M 2.0 4.0 L 10.0 4.0 L 12.0 7.0 L 22.0 7.0 L 22.0 20.0 L 2.0 20.0 Z M 3.5 8.5 L 20.5 8.5 L 20.5 18.5 L 3.5 18.5 Z M 3.5 5.5 L 8.5 5.5 L 11.2 7.0 L 3.5 7.0 Z" fill="#A0A0A0" fill-rule="evenodd" /><rect x="5" y="8" width="6" height="1.5" fill="#1A2010" rx="0.4" ry="0.4" /><rect x="9" y="11" width="8" height="1.5" fill="#1A2010" rx="0.4" ry="0.4" /><rect x="13" y="14" width="5" height="1.5" fill="#1A2010" rx="0.4" ry="0.4" /><rect x="5" y="8" width="6" height="1.5" fill="#1A2010" rx="0.4" ry="0.4" /><rect x="9" y="11" width="8" height="1.5" fill="#1A2010" rx="0.4" ry="0.4" /><rect x="13" y="14" width="5" height="1.5" fill="#1A2010" rx="0.4" ry="0.4" /><rect x="5" y="8" width="6" height="1.5" fill="#1A2010" rx="0.4" ry="0.4" /><rect x="9" y="11" width="8" height="1.5" fill="#1A2010" rx="0.4" ry="0.4" /><rect x="13" y="14" width="5" height="1.5" fill="#1A2010" rx="0.4" ry="0.4" /><rect x="5" y="8" width="6" height="1.5" fill="#1A2010" rx="0.4" ry="0.4" /><rect x="9" y="11" width="8" height="1.5" fill="#1A2010" rx="0.4" ry="0.4" /><rect x="13" y="14" width="5" height="1.5" fill="#1A2010" rx="0.4" ry="0.4" /><rect x="5" y="8" width="6" height="1.5" fill="#1A2010" rx="0.4" ry="0.4" /><rect x="9" y="11" width="8" height="1.5" fill="#1A2010" rx="0.4" ry="0.4" /><rect x="13" y="14" width="5" height="1.5" fill="#1A2010" rx="0.4" ry="0.4" /><rect x="5" y="8" width="6" height="1.5" fill="#1A2010" rx="0.4" ry="0.4" /><rect x="9" y="11" width="8" height="1.5" fill="#1A2010" rx="0.4" ry="0.4" /><rect x="13" y="14" width="5" height="1.5" fill="#1A2010" rx="0.4" ry="0.4" /><rect x="5" y="8" width="6" height="1.5" fill="#1A2010" rx="0.4" ry="0.4" /><rect x="9" y="11" width="8" height="1.5" fill="#1A2010" rx="0.4" ry="0.4" /><rect x="13" y="14" width="5" height="1.5" fill="#1A2010" rx="0.4" ry="0.4" /><rect x="5" y="8" width="6" height="1.5" fill="#1A2010" rx="0.4" ry="0.4" /><rect x="9" y="11" width="8" height="1.5" fill="#1A2010" rx="0.4" ry="0.4" /><rect x="13" y="14" width="5" height="1.5" fill="#1A2010" rx="0.4" ry="0.4" /><rect x="5" y="8" width="6" height="1.5" fill="#AAD400" rx="0.4" ry="0.4" /><rect x="9" y="11" width="8" height="1.5" fill="#F4B400" rx="0.4" ry="0.4" /><rect x="13" y="14" width="5" height="1.5" fill="#3B82F6" rx="0.4" ry="0.4" /><rect x="15" y="6" width="6" height="1.5" fill="#1A2010" rx="0.4" ry="0.4" /><path d="M 18.5 3.5 L 22 6.75 L 18.5 10 Z" fill="#1A2010" /><rect x="15" y="6" width="6" height="1.5" fill="#1A2010" rx="0.4" ry="0.4" /><path d="M 18.5 3.5 L 22 6.75 L 18.5 10 Z" fill="#1A2010" /><rect x="15" y="6" width="6" height="1.5" fill="#1A2010" rx="0.4" ry="0.4" /><path d="M 18.5 3.5 L 22 6.75 L 18.5 10 Z" fill="#1A2010" /><rect x="15" y="6" width="6" height="1.5" fill="#1A2010" rx="0.4" ry="0.4" /><path d="M 18.5 3.5 L 22 6.75 L 18.5 10 Z" fill="#1A2010" /><rect x="15" y="6" width="6" height="1.5" fill="#1A2010" rx="0.4" ry="0.4" /><path d="M 18.5 3.5 L 22 6.75 L 18.5 10 Z" fill="#1A2010" /><rect x="15" y="6" width="6" height="1.5" fill="#1A2010" rx="0.4" ry="0.4" /><path d="M 18.5 3.5 L 22 6.75 L 18.5 10 Z" fill="#1A2010" /><rect x="15" y="6" width="6" height="1.5" fill="#1A2010" rx="0.4" ry="0.4" /><path d="M 18.5 3.5 L 22 6.75 L 18.5 10 Z" fill="#1A2010" /><rect x="15" y="6" width="6" height="1.5" fill="#1A2010" rx="0.4" ry="0.4" /><path d="M 18.5 3.5 L 22 6.75 L 18.5 10 Z" fill="#1A2010" /><rect x="15" y="6" width="6" height="1.5" fill="#AAD400" rx="0.4" ry="0.4" /><path d="M 18.5 3.5 L 22 6.75 L 18.5 10 Z" fill="#AAD400" /></svg>