<?xml version="1.0" encoding="UTF-8" standalone="no"?>
<svg width="48" height="48" viewBox="2.484 2.484 19.032 19.032"
   version="1.1"
   id="svg4"
   sodipodi:docname="riepilogo.svg"
   inkscape:version="1.4.3 (0d15f75, 2025-12-25)"
   xmlns:inkscape="http://www.inkscape.org/namespaces/inkscape"
   xmlns:sodipodi="http://sodipodi.sourceforge.net/DTD/sodipodi-0.dtd"
   xmlns="http://www.w3.org/2000/svg"
   xmlns:svg="http://www.w3.org/2000/svg">
  <defs
     id="defs4" />
  <sodipodi:namedview
     id="namedview4"
     pagecolor="#ffffff"
     bordercolor="#000000"
     borderopacity="0.25"
     inkscape:showpageshadow="2"
     inkscape:pageopacity="0.0"
     inkscape:pagecheckerboard="0"
     inkscape:deskcolor="#d1d1d1"
     inkscape:zoom="11.888233"
     inkscape:cx="11.608117"
     inkscape:cy="20.566555"
     inkscape:window-width="1920"
     inkscape:window-height="1009"
     inkscape:window-x="1912"
     inkscape:window-y="-8"
     inkscape:window-maximized="1"
     inkscape:current-layer="svg4" />
  <g
     id="g5"
     transform="matrix(1.1984139,0,0,1.0904261,-2.3809668,0.62908447)">
    <rect
       x="4.5999999"
       y="4.8000002"
       width="14.8"
       height="1.6"
       rx="0.40000001"
       fill="#7F7F7F"
       id="rect1" />
    <rect
       x="4.5999999"
       y="2.0559123"
       width="14.8"
       height="1.6"
       rx="0.40000001"
       fill="#7F7F7F"
       id="rect1-9" />
    <rect
       x="4.5999999"
       y="7.6999998"
       width="14.8"
       height="1.6"
       rx="0.40000001"
       fill="#7F7F7F"
       id="rect2" />
    <rect
       x="4.5999999"
       y="10.6"
       width="14.8"
       height="2.8"
       rx="0.5"
       fill="#3b82f6"
       id="rect3" />
    <path
       d="m 4.779416,16.4 q 2.4528748,-2.2 4.7677091,0 2.3148339,2.2 4.9057499,0 2.590915,-2.2 4.767709,0 v 1.3 q -2.452875,-2.2 -4.767709,0 -2.314834,2.2 -4.9057499,0 -2.5909154,-2.2 -4.7677091,0 z"
       fill="#E9EFDF"
       id="path3"
       style="stroke-width:1.03046" />
  </g>
  <g
     id="g6"
     transform="translate(-22.333008,-4.8787739)">
    <g
       id="g1"
       transform="matrix(1.1909641,0,0,1.1909641,4.0710149,-2.3707896)">
      <polygon
         id="polygon1943"
         style="fill:#000000;fill-rule:evenodd"
         points="106.38,142.98 126.08,157.08 34.88,282.23 8.9034,297 15.209,268.09 "
         transform="matrix(0.07721783,0,0,0.07721783,21.325902,-0.9663696)"
         class="fil0" />
      <polygon
         id="polygon1945"
         style="fill:#E9EFDF;fill-opacity:1;fill-rule:evenodd"
         points="106.83,145.76 123.27,157.54 33.518,280.71 11.813,293.05 17.073,268.93 "
         transform="matrix(0.07721783,0,0,0.07721783,21.325902,-0.9663696)"
         class="fil1" />
    </g>
  </g>
</svg>
