<svg xmlns="http://www.w3.org/2000/svg" viewBox="0 0 24 24" width="100%" height="100%"><path d="M 5.0 3.0 L 15.0 3.0 L 19.0 7.0 L 19.0 21.0 L 5.0 21.0 Z M 6.5 4.5 L 6.5 19.5 L 17.5 19.5 L 17.5 7.75 L 14.25 4.5 Z" fill="#FAFAFA" fill-rule="evenodd" /><rect x="8" y="8" width="4" height="1.5" fill="#1A2010" /><rect x="8" y="11" width="8" height="1.5" fill="#1A2010" /><rect x="8" y="14" width="6" height="1.5" fill="#1A2010" /><rect x="8" y="8" width="4" height="1.5" fill="#1A2010" /><rect x="8" y="11" width="8" height="1.5" fill="#1A2010" /><rect x="8" y="14" width="6" height="1.5" fill="#1A2010" /><rect x="8" y="8" width="4" height="1.5" fill="#1A2010" /><rect x="8" y="11" width="8" height="1.5" fill="#1A2010" /><rect x="8" y="14" width="6" height="1.5" fill="#1A2010" /><rect x="8" y="8" width="4" height="1.5" fill="#1A2010" /><rect x="8" y="11" width="8" height="1.5" fill="#1A2010" /><rect x="8" y="14" width="6" height="1.5" fill="#1A2010" /><rect x="8" y="8" width="4" height="1.5" fill="#1A2010" /><rect x="8" y="11" width="8" height="1.5" fill="#1A2010" /><rect x="8" y="14" width="6" height="1.5" fill="#1A2010" /><rect x="8" y="8" width="4" height="1.5" fill="#1A2010" /><rect x="8" y="11" width="8" height="1.5" fill="#1A2010" /><rect x="8" y="14" width="6" height="1.5" fill="#1A2010" /><rect x="8" y="8" width="4" height="1.5" fill="#1A2010" /><rect x="8" y="11" width="8" height="1.5" fill="#1A2010" /><rect x="8" y="14" width="6" height="1.5" fill="#1A2010" /><rect x="8" y="8" width="4" height="1.5" fill="#1A2010" /><rect x="8" y="11" width="8" height="1.5" fill="#1A2010" /><rect x="8" y="14" width="6" height="1.5" fill="#1A2010" /><rect x="8" y="8" width="4" height="1.5" fill="#AAD400" /><rect x="8" y="11" width="8" height="1.5" fill="#F4B400" /><rect x="8" y="14" width="6" height="1.5" fill="#3B82F6" /></svg>