<svg xmlns="http://www.w3.org/2000/svg" viewBox="0 0 24 24" width="100%" height="100%"><rect x="3" y="14" width="18" height="3" fill="#FF4D2E" rx="0.5" ry="0.5" /><rect x="10" y="4" width="4" height="6" fill="#1A2010" rx="0.5" ry="0.5" /><path d="M 10 10 L 12 13 L 14 10 Z" fill="#1A2010" /><rect x="10" y="4" width="4" height="6" fill="#1A2010" rx="0.5" ry="0.5" /><path d="M 10 10 L 12 13 L 14 10 Z" fill="#1A2010" /><rect x="10" y="4" width="4" height="6" fill="#1A2010" rx="0.5" ry="0.5" /><path d="M 10 10 L 12 13 L 14 10 Z" fill="#1A2010" /><rect x="10" y="4" width="4" height="6" fill="#1A2010" rx="0.5" ry="0.5" /><path d="M 10 10 L 12 13 L 14 10 Z" fill="#1A2010" /><rect x="10" y="4" width="4" height="6" fill="#1A2010" rx="0.5" ry="0.5" /><path d="M 10 10 L 12 13 L 14 10 Z" fill="#1A2010" /><rect x="10" y="4" width="4" height="6" fill="#1A2010" rx="0.5" ry="0.5" /><path d="M 10 10 L 12 13 L 14 10 Z" fill="#1A2010" /><rect x="10" y="4" width="4" height="6" fill="#1A2010" rx="0.5" ry="0.5" /><path d="M 10 10 L 12 13 L 14 10 Z" fill="#1A2010" /><rect x="10" y="4" width="4" height="6" fill="#1A2010" rx="0.5" ry="0.5" /><path d="M 10 10 L 12 13 L 14 10 Z" fill="#1A2010" /><rect x="10" y="4" width="4" height="6" fill="#F4B400" rx="0.5" ry="0.5" /><path d="M 10 10 L 12 13 L 14 10 Z" fill="#FF4D2E" /></svg>