<?xml version="1.0" encoding="UTF-8" standalone="no"?>
<svg
   width="32"
   height="32"
   viewBox="0 0 8.4666665 8.4666669"
   version="1.1"
   id="svg8"
   inkscape:version="1.3 (0e150ed6c4, 2023-07-21)"
   sodipodi:docname="rinumCap.svg"
   inkscape:export-filename="/media/part-dati/Immagini/icone_leeno/png/rinumCap_26.png"
   inkscape:export-xdpi="104"
   inkscape:export-ydpi="104"
   xmlns:inkscape="http://www.inkscape.org/namespaces/inkscape"
   xmlns:sodipodi="http://sodipodi.sourceforge.net/DTD/sodipodi-0.dtd"
   xmlns="http://www.w3.org/2000/svg"
   xmlns:svg="http://www.w3.org/2000/svg"
   xmlns:rdf="http://www.w3.org/1999/02/22-rdf-syntax-ns#"
   xmlns:cc="http://creativecommons.org/ns#"
   xmlns:dc="http://purl.org/dc/elements/1.1/">
  <defs
     id="defs2" />
  <sodipodi:namedview
     id="base"
     pagecolor="#000000"
     bordercolor="#666666"
     borderopacity="1.0"
     inkscape:pageopacity="0.0"
     inkscape:pageshadow="2"
     inkscape:zoom="13.810679"
     inkscape:cx="15.82109"
     inkscape:cy="25.2703"
     inkscape:document-units="mm"
     inkscape:current-layer="layer1"
     inkscape:document-rotation="0"
     showgrid="false"
     units="px"
     inkscape:window-width="1920"
     inkscape:window-height="996"
     inkscape:window-x="-8"
     inkscape:window-y="-8"
     inkscape:window-maximized="1"
     inkscape:pagecheckerboard="0"
     showguides="false"
     inkscape:showpageshadow="2"
     inkscape:deskcolor="#d1d1d1" />
  <metadata
     id="metadata5">
    <rdf:RDF>
      <cc:Work
         rdf:about="">
        <dc:format>image/svg+xml</dc:format>
        <dc:type
           rdf:resource="http://purl.org/dc/dcmitype/StillImage" />
      </cc:Work>
    </rdf:RDF>
  </metadata>
  <g
     inkscape:label="Livello 1"
     inkscape:groupmode="layer"
     id="layer1">
    <g
       id="g1"
       transform="translate(0.0622539,-0.10912261)">
      <rect
         style="fill:#919191;fill-opacity:1;stroke:#919191;stroke-width:0.1;stroke-linecap:butt;stroke-miterlimit:4;stroke-dasharray:none;stroke-opacity:1;paint-order:fill markers stroke"
         id="rect4331"
         width="7"
         height="0.55000001"
         x="0.69999999"
         y="0.80000001" />
      <rect
         style="fill:#919191;fill-opacity:1;stroke:#919191;stroke-width:0.1;stroke-linecap:butt;stroke-miterlimit:4;stroke-dasharray:none;stroke-opacity:1;paint-order:fill markers stroke"
         id="rect5285-2"
         width="5"
         height="0.55000001"
         x="2.7"
         y="2" />
      <rect
         style="fill:#919191;fill-opacity:1;stroke:#919191;stroke-width:0.1;stroke-linecap:butt;stroke-miterlimit:4;stroke-dasharray:none;stroke-opacity:1;paint-order:fill markers stroke"
         id="rect5281"
         width="3"
         height="0.55000001"
         x="4.6999998"
         y="3.2" />
      <rect
         style="fill:#919191;fill-opacity:1;stroke:#919191;stroke-width:0.1;stroke-linecap:butt;stroke-miterlimit:4;stroke-dasharray:none;stroke-opacity:1;paint-order:fill markers stroke"
         id="rect5283"
         width="7"
         height="0.55000001"
         x="0.69999999"
         y="4.8000002" />
      <rect
         style="fill:#919191;fill-opacity:1;stroke:#919191;stroke-width:0.1;stroke-linecap:butt;stroke-miterlimit:4;stroke-dasharray:none;stroke-opacity:1;paint-order:fill markers stroke"
         id="rect5285"
         width="5"
         height="0.55000001"
         x="2.7"
         y="6" />
      <rect
         style="fill:#919191;fill-opacity:1;stroke:#919191;stroke-width:0.1;stroke-linecap:butt;stroke-miterlimit:4;stroke-dasharray:none;stroke-opacity:1;paint-order:fill markers stroke"
         id="rect1"
         width="3"
         height="0.55000001"
         x="4.6999998"
         y="7.1999998" />
    </g>
    <path
       d="m 7.3767391,3.5040954 c 0,0.00976 -9.79e-4,0.016595 -0.0029,0.020497 -0.124943,0.5231979 -0.386538,0.9473136 -0.784793,1.2723602 -0.3982539,0.325047 -0.8648301,0.487568 -1.3997414,0.487568 -0.2850255,0 -0.560774,-0.05368 -0.8272533,-0.161058 C 4.0955428,5.0160896 3.8578623,4.8628426 3.6489737,4.6637147 L 3.2712188,5.0414696 c -0.037092,0.03709 -0.081017,0.05564 -0.1317749,0.05564 -0.050758,0 -0.094683,-0.01854 -0.1317749,-0.05564 -0.037092,-0.03709 -0.055638,-0.08102 -0.055638,-0.131775 V 3.5978021 c 0,-0.050758 0.018545,-0.094682 0.055638,-0.1317749 0.037092,-0.037092 0.081017,-0.055638 0.1317749,-0.055638 h 1.3118925 c 0.050758,0 0.094683,0.018545 0.131775,0.055638 0.037092,0.037092 0.055638,0.081017 0.055638,0.1317749 0,0.050758 -0.018545,0.094682 -0.055638,0.131775 L 4.1819297,4.1307584 c 0.1386086,0.1288473 0.2957608,0.2284095 0.4714616,0.2986897 0.1757005,0.070281 0.3582316,0.1054201 0.5475978,0.1054201 0.2615988,0 0.505624,-0.063447 0.7320828,-0.1903415 0.2264583,-0.126895 0.4080133,-0.3016171 0.5446692,-0.5241714 0.02147,-0.033188 0.07321,-0.1473917 0.155202,-0.3426147 0.01562,-0.044901 0.0449,-0.067352 0.08785,-0.067352 h 0.562239 c 0.02538,0 0.04734,0.00927 0.06589,0.027819 0.01855,0.018547 0.02782,0.040508 0.02782,0.065887 z m 0.07321,-2.3426647 V 2.473323 c 0,0.050758 -0.01855,0.094682 -0.05564,0.1317749 -0.03709,0.037092 -0.08102,0.055638 -0.131775,0.055638 H 5.9506418 c -0.050758,0 -0.094682,-0.018545 -0.1317749,-0.055638 -0.037092,-0.037092 -0.055638,-0.081017 -0.055638,-0.1317749 0,-0.050758 0.018545,-0.094683 0.055638,-0.131775 L 6.2229762,1.9374383 C 5.9340466,1.6699829 5.5933874,1.5362569 5.2009891,1.5362569 c -0.2615988,0 -0.505624,0.063447 -0.7320827,0.1903415 -0.2264588,0.126895 -0.4080135,0.3016171 -0.5446697,0.5241714 -0.021474,0.033188 -0.073208,0.1473917 -0.1552014,0.3426147 -0.015618,0.044901 -0.044901,0.067352 -0.08785,0.067352 h -0.582738 c -0.025379,0 -0.047341,-0.00927 -0.065887,-0.027819 -0.018547,-0.018547 -0.027819,-0.040508 -0.027819,-0.065887 V 2.5465325 C 3.1316358,2.0233335 3.395183,1.5992178 3.7953902,1.2741714 4.1955973,0.94912517 4.6641257,0.78660427 5.2009891,0.78660427 c 0.2850256,0 0.5622383,0.054174 0.831646,0.1625225 0.2694081,0.10834873 0.508552,0.26110853 0.717441,0.45828373 l 0.380683,-0.3777546 c 0.03709,-0.037092 0.08102,-0.055638 0.131775,-0.055638 0.05076,0 0.09468,0.018547 0.131775,0.055638 0.03709,0.037092 0.05564,0.081017 0.05564,0.1317748 z"
       id="rotate"
       fill="#ffffff"
       style="stroke-width:0.264583" />
  </g>
</svg>

