<svg xmlns="http://www.w3.org/2000/svg" viewBox="0 0 24 24" width="100%" height="100%"><path d="M 5 5 L 13 5 L 9 12 L 13 19 L 5 19 L 5 17.5 L 10.5 17.5 L 7.5 12 L 10.5 6.5 L 5 6.5 Z" fill="#AAD400" /><rect x="14" y="4" width="3" height="10" fill="#1A2010" rx="0.5" ry="0.5" /><path d="M 14 14 L 15.5 17 L 17 14 Z" fill="#1A2010" /><rect x="14" y="4" width="3" height="10" fill="#1A2010" rx="0.5" ry="0.5" /><path d="M 14 14 L 15.5 17 L 17 14 Z" fill="#1A2010" /><rect x="14" y="4" width="3" height="10" fill="#1A2010" rx="0.5" ry="0.5" /><path d="M 14 14 L 15.5 17 L 17 14 Z" fill="#1A2010" /><rect x="14" y="4" width="3" height="10" fill="#1A2010" rx="0.5" ry="0.5" /><path d="M 14 14 L 15.5 17 L 17 14 Z" fill="#1A2010" /><rect x="14" y="4" width="3" height="10" fill="#1A2010" rx="0.5" ry="0.5" /><path d="M 14 14 L 15.5 17 L 17 14 Z" fill="#1A2010" /><rect x="14" y="4" width="3" height="10" fill="#1A2010" rx="0.5" ry="0.5" /><path d="M 14 14 L 15.5 17 L 17 14 Z" fill="#1A2010" /><rect x="14" y="4" width="3" height="10" fill="#1A2010" rx="0.5" ry="0.5" /><path d="M 14 14 L 15.5 17 L 17 14 Z" fill="#1A2010" /><rect x="14" y="4" width="3" height="10" fill="#1A2010" rx="0.5" ry="0.5" /><path d="M 14 14 L 15.5 17 L 17 14 Z" fill="#1A2010" /><rect x="14" y="4" width="3" height="10" fill="#F4B400" rx="0.5" ry="0.5" /><path d="M 14 14 L 15.5 17 L 17 14 Z" fill="#AAD400" /></svg>