<svg xmlns="http://www.w3.org/2000/svg" viewBox="0 0 24 24" width="100%" height="100%"><path d="M 2.0 4.0 L 10.0 4.0 L 12.0 7.0 L 22.0 7.0 L 22.0 20.0 L 2.0 20.0 Z M 3.5 8.5 L 20.5 8.5 L 20.5 18.5 L 3.5 18.5 Z M 3.5 5.5 L 8.5 5.5 L 11.2 7.0 L 3.5 7.0 Z" fill="#FAFAFA" fill-rule="evenodd" /><rect x="11.25" y="10" width="1.5" height="6" fill="#1A2010" rx="0.4" ry="0.4" /><rect x="11.25" y="10" width="1.5" height="6" fill="#1A2010" rx="0.4" ry="0.4" /><rect x="11.25" y="10" width="1.5" height="6" fill="#1A2010" rx="0.4" ry="0.4" /><rect x="11.25" y="10" width="1.5" height="6" fill="#1A2010" rx="0.4" ry="0.4" /><rect x="11.25" y="10" width="1.5" height="6" fill="#1A2010" rx="0.4" ry="0.4" /><rect x="11.25" y="10" width="1.5" height="6" fill="#1A2010" rx="0.4" ry="0.4" /><rect x="11.25" y="10" width="1.5" height="6" fill="#1A2010" rx="0.4" ry="0.4" /><rect x="11.25" y="10" width="1.5" height="6" fill="#1A2010" rx="0.4" ry="0.4" /><rect x="11.25" y="10" width="1.5" height="6" fill="#AAD400" rx="0.4" ry="0.4" /></svg>