<svg xmlns="http://www.w3.org/2000/svg" viewBox="0 0 24 24" width="100%" height="100%"><path d="M -1 2 L 7 2 L 9 5 L 19 5 L 19 18 L -1 18 Z M 0.5 6.5 L 17.5 6.5 L 17.5 16.5 L 0.5 16.5 Z M 0.5 3.5 L 5.5 3.5 L 8.2 5 L 0.5 5 Z" fill="#A0A0A0" fill-rule="evenodd" /><path d="M 4 6 L 12 6 L 14 9 L 24 9 L 24 22 L 4 22 Z M 5.5 10.5 L 22.5 10.5 L 22.5 20.5 L 5.5 20.5 Z M 5.5 7.5 L 10.5 7.5 L 13.2 9 L 5.5 9 Z" fill="#1A2010" fill-rule="evenodd" /><path d="M 4 6 L 12 6 L 14 9 L 24 9 L 24 22 L 4 22 Z M 5.5 10.5 L 22.5 10.5 L 22.5 20.5 L 5.5 20.5 Z M 5.5 7.5 L 10.5 7.5 L 13.2 9 L 5.5 9 Z" fill="#1A2010" fill-rule="evenodd" /><path d="M 4 6 L 12 6 L 14 9 L 24 9 L 24 22 L 4 22 Z M 5.5 10.5 L 22.5 10.5 L 22.5 20.5 L 5.5 20.5 Z M 5.5 7.5 L 10.5 7.5 L 13.2 9 L 5.5 9 Z" fill="#1A2010" fill-rule="evenodd" /><path d="M 4 6 L 12 6 L 14 9 L 24 9 L 24 22 L 4 22 Z M 5.5 10.5 L 22.5 10.5 L 22.5 20.5 L 5.5 20.5 Z M 5.5 7.5 L 10.5 7.5 L 13.2 9 L 5.5 9 Z" fill="#1A2010" fill-rule="evenodd" /><path d="M 4 6 L 12 6 L 14 9 L 24 9 L 24 22 L 4 22 Z M 5.5 10.5 L 22.5 10.5 L 22.5 20.5 L 5.5 20.5 Z M 5.5 7.5 L 10.5 7.5 L 13.2 9 L 5.5 9 Z" fill="#1A2010" fill-rule="evenodd" /><path d="M 4 6 L 12 6 L 14 9 L 24 9 L 24 22 L 4 22 Z M 5.5 10.5 L 22.5 10.5 L 22.5 20.5 L 5.5 20.5 Z M 5.5 7.5 L 10.5 7.5 L 13.2 9 L 5.5 9 Z" fill="#1A2010" fill-rule="evenodd" /><path d="M 4 6 L 12 6 L 14 9 L 24 9 L 24 22 L 4 22 Z M 5.5 10.5 L 22.5 10.5 L 22.5 20.5 L 5.5 20.5 Z M 5.5 7.5 L 10.5 7.5 L 13.2 9 L 5.5 9 Z" fill="#1A2010" fill-rule="evenodd" /><path d="M 4 6 L 12 6 L 14 9 L 24 9 L 24 22 L 4 22 Z M 5.5 10.5 L 22.5 10.5 L 22.5 20.5 L 5.5 20.5 Z M 5.5 7.5 L 10.5 7.5 L 13.2 9 L 5.5 9 Z" fill="#1A2010" fill-rule="evenodd" /><path d="M 4 6 L 12 6 L 14 9 L 24 9 L 24 22 L 4 22 Z M 5.5 10.5 L 22.5 10.5 L 22.5 20.5 L 5.5 20.5 Z M 5.5 7.5 L 10.5 7.5 L 13.2 9 L 5.5 9 Z" fill="#FAFAFA" fill-rule="evenodd" /><rect x="6" y="12" width="5" height="1.5" fill="#1A2010" rx="0.4" ry="0.4" /><path d="M 8.5 9.5 L 12 12.75 L 8.5 16 Z" fill="#1A2010" /><rect x="6" y="12" width="5" height="1.5" fill="#1A2010" rx="0.4" ry="0.4" /><path d="M 8.5 9.5 L 12 12.75 L 8.5 16 Z" fill="#1A2010" /><rect x="6" y="12" width="5" height="1.5" fill="#1A2010" rx="0.4" ry="0.4" /><path d="M 8.5 9.5 L 12 12.75 L 8.5 16 Z" fill="#1A2010" /><rect x="6" y="12" width="5" height="1.5" fill="#1A2010" rx="0.4" ry="0.4" /><path d="M 8.5 9.5 L 12 12.75 L 8.5 16 Z" fill="#1A2010" /><rect x="6" y="12" width="5" height="1.5" fill="#1A2010" rx="0.4" ry="0.4" /><path d="M 8.5 9.5 L 12 12.75 L 8.5 16 Z" fill="#1A2010" /><rect x="6" y="12" width="5" height="1.5" fill="#1A2010" rx="0.4" ry="0.4" /><path d="M 8.5 9.5 L 12 12.75 L 8.5 16 Z" fill="#1A2010" /><rect x="6" y="12" width="5" height="1.5" fill="#1A2010" rx="0.4" ry="0.4" /><path d="M 8.5 9.5 L 12 12.75 L 8.5 16 Z" fill="#1A2010" /><rect x="6" y="12" width="5" height="1.5" fill="#1A2010" rx="0.4" ry="0.4" /><path d="M 8.5 9.5 L 12 12.75 L 8.5 16 Z" fill="#1A2010" /><rect x="6" y="12" width="5" height="1.5" fill="#AAD400" rx="0.4" ry="0.4" /><path d="M 8.5 9.5 L 12 12.75 L 8.5 16 Z" fill="#AAD400" /></svg>