<svg xmlns="http://www.w3.org/2000/svg" viewBox="0 0 24 24" width="100%" height="100%"><path d="M 5.0 3.0 L 15.0 3.0 L 19.0 7.0 L 19.0 21.0 L 5.0 21.0 Z M 6.5 4.5 L 6.5 19.5 L 17.5 19.5 L 17.5 7.75 L 14.25 4.5 Z" fill="#FAFAFA" fill-rule="evenodd" /><path d="M 8 13 C 10 10, 14 10, 16 13 C 14 16, 10 16, 8 13 Z" fill="#1A2010" /><circle cx="12" cy="13" r="2" fill="#1A2010" /><circle cx="12" cy="13" r="1" fill="#1A2010" /><path d="M 8 13 C 10 10, 14 10, 16 13 C 14 16, 10 16, 8 13 Z" fill="#1A2010" /><circle cx="12" cy="13" r="2" fill="#1A2010" /><circle cx="12" cy="13" r="1" fill="#1A2010" /><path d="M 8 13 C 10 10, 14 10, 16 13 C 14 16, 10 16, 8 13 Z" fill="#1A2010" /><circle cx="12" cy="13" r="2" fill="#1A2010" /><circle cx="12" cy="13" r="1" fill="#1A2010" /><path d="M 8 13 C 10 10, 14 10, 16 13 C 14 16, 10 16, 8 13 Z" fill="#1A2010" /><circle cx="12" cy="13" r="2" fill="#1A2010" /><circle cx="12" cy="13" r="1" fill="#1A2010" /><path d="M 8 13 C 10 10, 14 10, 16 13 C 14 16, 10 16, 8 13 Z" fill="#1A2010" /><circle cx="12" cy="13" r="2" fill="#1A2010" /><circle cx="12" cy="13" r="1" fill="#1A2010" /><path d="M 8 13 C 10 10, 14 10, 16 13 C 14 16, 10 16, 8 13 Z" fill="#1A2010" /><circle cx="12" cy="13" r="2" fill="#1A2010" /><circle cx="12" cy="13" r="1" fill="#1A2010" /><path d="M 8 13 C 10 10, 14 10, 16 13 C 14 16, 10 16, 8 13 Z" fill="#1A2010" /><circle cx="12" cy="13" r="2" fill="#1A2010" /><circle cx="12" cy="13" r="1" fill="#1A2010" /><path d="M 8 13 C 10 10, 14 10, 16 13 C 14 16, 10 16, 8 13 Z" fill="#1A2010" /><circle cx="12" cy="13" r="2" fill="#1A2010" /><circle cx="12" cy="13" r="1" fill="#1A2010" /><path d="M 8 13 C 10 10, 14 10, 16 13 C 14 16, 10 16, 8 13 Z" fill="#3B82F6" /><circle cx="12" cy="13" r="2" fill="#1A2010" /><circle cx="12" cy="13" r="1" fill="#3B82F6" /></svg>