<svg xmlns="http://www.w3.org/2000/svg" viewBox="0 0 24 24" width="100%" height="100%"><path d="M 5.0 3.0 L 15.0 3.0 L 19.0 7.0 L 19.0 21.0 L 5.0 21.0 Z M 6.5 4.5 L 6.5 19.5 L 17.5 19.5 L 17.5 7.75 L 14.25 4.5 Z" fill="#FAFAFA" fill-rule="evenodd" /><rect x="3" y="12" width="18" height="1.5" fill="#1A2010" rx="0.4" ry="0.4" /><rect x="3" y="12" width="18" height="1.5" fill="#1A2010" rx="0.4" ry="0.4" /><rect x="3" y="12" width="18" height="1.5" fill="#1A2010" rx="0.4" ry="0.4" /><rect x="3" y="12" width="18" height="1.5" fill="#1A2010" rx="0.4" ry="0.4" /><rect x="3" y="12" width="18" height="1.5" fill="#1A2010" rx="0.4" ry="0.4" /><rect x="3" y="12" width="18" height="1.5" fill="#1A2010" rx="0.4" ry="0.4" /><rect x="3" y="12" width="18" height="1.5" fill="#1A2010" rx="0.4" ry="0.4" /><rect x="3" y="12" width="18" height="1.5" fill="#1A2010" rx="0.4" ry="0.4" /><rect x="3" y="12" width="18" height="1.5" fill="#FF4D2E" rx="0.4" ry="0.4" /></svg>