<svg xmlns="http://www.w3.org/2000/svg" viewBox="0 0 24 24" width="100%" height="100%"><path d="M 5.0 3.0 L 15.0 3.0 L 19.0 7.0 L 19.0 21.0 L 5.0 21.0 Z M 6.5 4.5 L 6.5 19.5 L 17.5 19.5 L 17.5 7.75 L 14.25 4.5 Z" fill="#1A2010" fill-rule="evenodd" /><circle cx="15" cy="15" r="4" fill="#F0F4E0" /><circle cx="15" cy="15" r="2.8" fill="#F0F4E0" /><circle cx="15" cy="15" r="1.5" fill="#F0F4E0" /><circle cx="15" cy="15" r="4" fill="#F0F4E0" /><circle cx="15" cy="15" r="2.8" fill="#F0F4E0" /><circle cx="15" cy="15" r="1.5" fill="#F0F4E0" /><circle cx="15" cy="15" r="4" fill="#F0F4E0" /><circle cx="15" cy="15" r="2.8" fill="#F0F4E0" /><circle cx="15" cy="15" r="1.5" fill="#F0F4E0" /><circle cx="15" cy="15" r="4" fill="#F0F4E0" /><circle cx="15" cy="15" r="2.8" fill="#F0F4E0" /><circle cx="15" cy="15" r="1.5" fill="#F0F4E0" /><circle cx="15" cy="15" r="4" fill="#F0F4E0" /><circle cx="15" cy="15" r="2.8" fill="#F0F4E0" /><circle cx="15" cy="15" r="1.5" fill="#F0F4E0" /><circle cx="15" cy="15" r="4" fill="#F0F4E0" /><circle cx="15" cy="15" r="2.8" fill="#F0F4E0" /><circle cx="15" cy="15" r="1.5" fill="#F0F4E0" /><circle cx="15" cy="15" r="4" fill="#F0F4E0" /><circle cx="15" cy="15" r="2.8" fill="#F0F4E0" /><circle cx="15" cy="15" r="1.5" fill="#F0F4E0" /><circle cx="15" cy="15" r="4" fill="#F0F4E0" /><circle cx="15" cy="15" r="2.8" fill="#F0F4E0" /><circle cx="15" cy="15" r="1.5" fill="#F0F4E0" /><circle cx="15" cy="15" r="4" fill="#FF4D2E" /><circle cx="15" cy="15" r="2.8" fill="#F0F4E0" /><circle cx="15" cy="15" r="1.5" fill="#FF4D2E" /></svg>