<svg xmlns="http://www.w3.org/2000/svg" viewBox="0 0 24 24" width="100%" height="100%"><path d="M 5.0 3.0 L 15.0 3.0 L 19.0 7.0 L 19.0 21.0 L 5.0 21.0 Z M 6.5 4.5 L 6.5 19.5 L 17.5 19.5 L 17.5 7.75 L 14.25 4.5 Z" fill="#1A2010" fill-rule="evenodd" /><path d="M 10 10 C 8.5 10, 8 11, 8 13 C 8 15, 8.5 16, 10 16 C 11.5 16, 12 15, 12 13 C 12 11, 11.5 10, 10 10 Z" fill="#F0F4E0" /><path d="M 10 10 C 8.5 10, 8 11, 8 13 C 8 15, 8.5 16, 10 16 C 11.5 16, 12 15, 12 13 C 12 11, 11.5 10, 10 10 Z" fill="#F0F4E0" /><path d="M 10 10 C 8.5 10, 8 11, 8 13 C 8 15, 8.5 16, 10 16 C 11.5 16, 12 15, 12 13 C 12 11, 11.5 10, 10 10 Z" fill="#F0F4E0" /><path d="M 10 10 C 8.5 10, 8 11, 8 13 C 8 15, 8.5 16, 10 16 C 11.5 16, 12 15, 12 13 C 12 11, 11.5 10, 10 10 Z" fill="#F0F4E0" /><path d="M 10 10 C 8.5 10, 8 11, 8 13 C 8 15, 8.5 16, 10 16 C 11.5 16, 12 15, 12 13 C 12 11, 11.5 10, 10 10 Z" fill="#F0F4E0" /><path d="M 10 10 C 8.5 10, 8 11, 8 13 C 8 15, 8.5 16, 10 16 C 11.5 16, 12 15, 12 13 C 12 11, 11.5 10, 10 10 Z" fill="#F0F4E0" /><path d="M 10 10 C 8.5 10, 8 11, 8 13 C 8 15, 8.5 16, 10 16 C 11.5 16, 12 15, 12 13 C 12 11, 11.5 10, 10 10 Z" fill="#F0F4E0" /><path d="M 10 10 C 8.5 10, 8 11, 8 13 C 8 15, 8.5 16, 10 16 C 11.5 16, 12 15, 12 13 C 12 11, 11.5 10, 10 10 Z" fill="#F0F4E0" /><path d="M 10 10 C 8.5 10, 8 11, 8 13 C 8 15, 8.5 16, 10 16 C 11.5 16, 12 15, 12 13 C 12 11, 11.5 10, 10 10 Z" fill="#FF4D2E" /><rect x="13" y="15.25" width="6" height="1.5" fill="#F0F4E0" rx="0.4" ry="0.4" /><rect x="13" y="15.25" width="6" height="1.5" fill="#F0F4E0" rx="0.4" ry="0.4" /><rect x="13" y="15.25" width="6" height="1.5" fill="#F0F4E0" rx="0.4" ry="0.4" /><rect x="13" y="15.25" width="6" height="1.5" fill="#F0F4E0" rx="0.4" ry="0.4" /><rect x="13" y="15.25" width="6" height="1.5" fill="#F0F4E0" rx="0.4" ry="0.4" /><rect x="13" y="15.25" width="6" height="1.5" fill="#F0F4E0" rx="0.4" ry="0.4" /><rect x="13" y="15.25" width="6" height="1.5" fill="#F0F4E0" rx="0.4" ry="0.4" /><rect x="13" y="15.25" width="6" height="1.5" fill="#F0F4E0" rx="0.4" ry="0.4" /><rect x="13" y="15.25" width="6" height="1.5" fill="#FF4D2E" rx="0.4" ry="0.4" /></svg>