<svg xmlns="http://www.w3.org/2000/svg" viewBox="0 0 24 24" width="100%" height="100%"><path d="M 4 2 L 14 2 L 18 6 L 18 20 L 4 20 Z M 5.5 3.5 L 5.5 18.5 L 16.5 18.5 L 16.5 6.75 L 13.25 3.5 Z" fill="#1A2010" fill-rule="evenodd" /><path d="M 7 5 L 17 5 L 21 9 L 21 23 L 7 23 Z M 8.5 6.5 L 8.5 21.5 L 19.5 21.5 L 19.5 9.75 L 16.25 6.5 Z" fill="#F0F4E0" fill-rule="evenodd" /><path d="M 7 5 L 17 5 L 21 9 L 21 23 L 7 23 Z M 8.5 6.5 L 8.5 21.5 L 19.5 21.5 L 19.5 9.75 L 16.25 6.5 Z" fill="#F0F4E0" fill-rule="evenodd" /><path d="M 7 5 L 17 5 L 21 9 L 21 23 L 7 23 Z M 8.5 6.5 L 8.5 21.5 L 19.5 21.5 L 19.5 9.75 L 16.25 6.5 Z" fill="#F0F4E0" fill-rule="evenodd" /><path d="M 7 5 L 17 5 L 21 9 L 21 23 L 7 23 Z M 8.5 6.5 L 8.5 21.5 L 19.5 21.5 L 19.5 9.75 L 16.25 6.5 Z" fill="#F0F4E0" fill-rule="evenodd" /><path d="M 7 5 L 17 5 L 21 9 L 21 23 L 7 23 Z M 8.5 6.5 L 8.5 21.5 L 19.5 21.5 L 19.5 9.75 L 16.25 6.5 Z" fill="#F0F4E0" fill-rule="evenodd" /><path d="M 7 5 L 17 5 L 21 9 L 21 23 L 7 23 Z M 8.5 6.5 L 8.5 21.5 L 19.5 21.5 L 19.5 9.75 L 16.25 6.5 Z" fill="#F0F4E0" fill-rule="evenodd" /><path d="M 7 5 L 17 5 L 21 9 L 21 23 L 7 23 Z M 8.5 6.5 L 8.5 21.5 L 19.5 21.5 L 19.5 9.75 L 16.25 6.5 Z" fill="#F0F4E0" fill-rule="evenodd" /><path d="M 7 5 L 17 5 L 21 9 L 21 23 L 7 23 Z M 8.5 6.5 L 8.5 21.5 L 19.5 21.5 L 19.5 9.75 L 16.25 6.5 Z" fill="#F0F4E0" fill-rule="evenodd" /><path d="M 7 5 L 17 5 L 21 9 L 21 23 L 7 23 Z M 8.5 6.5 L 8.5 21.5 L 19.5 21.5 L 19.5 9.75 L 16.25 6.5 Z" fill="#1A2010" fill-rule="evenodd" /><path d="M 13 14 L 14 13 L 18 17 L 17 18 Z M 17 13 L 18 14 L 14 18 L 13 17 Z" fill="#F0F4E0" /><path d="M 13 14 L 14 13 L 18 17 L 17 18 Z M 17 13 L 18 14 L 14 18 L 13 17 Z" fill="#F0F4E0" /><path d="M 13 14 L 14 13 L 18 17 L 17 18 Z M 17 13 L 18 14 L 14 18 L 13 17 Z" fill="#F0F4E0" /><path d="M 13 14 L 14 13 L 18 17 L 17 18 Z M 17 13 L 18 14 L 14 18 L 13 17 Z" fill="#F0F4E0" /><path d="M 13 14 L 14 13 L 18 17 L 17 18 Z M 17 13 L 18 14 L 14 18 L 13 17 Z" fill="#F0F4E0" /><path d="M 13 14 L 14 13 L 18 17 L 17 18 Z M 17 13 L 18 14 L 14 18 L 13 17 Z" fill="#F0F4E0" /><path d="M 13 14 L 14 13 L 18 17 L 17 18 Z M 17 13 L 18 14 L 14 18 L 13 17 Z" fill="#F0F4E0" /><path d="M 13 14 L 14 13 L 18 17 L 17 18 Z M 17 13 L 18 14 L 14 18 L 13 17 Z" fill="#F0F4E0" /><path d="M 13 14 L 14 13 L 18 17 L 17 18 Z M 17 13 L 18 14 L 14 18 L 13 17 Z" fill="#FF4D2E" /></svg>