<?xml version="1.0" encoding="UTF-8" standalone="no"?>
<svg
   viewBox="0 0 32 32"
   version="1.1"
   id="svg6"
   sodipodi:docname="image14_16.svg"
   inkscape:version="1.1 (c68e22c387, 2021-05-23)"
   inkscape:export-filename="/media/part-dati/Immagini/icone_leeno/png/image14_16.png"
   inkscape:export-xdpi="104"
   inkscape:export-ydpi="104"
   width="32"
   height="32"
   xmlns:inkscape="http://www.inkscape.org/namespaces/inkscape"
   xmlns:sodipodi="http://sodipodi.sourceforge.net/DTD/sodipodi-0.dtd"
   xmlns="http://www.w3.org/2000/svg"
   xmlns:svg="http://www.w3.org/2000/svg">
  <defs
     id="defs10" />
  <sodipodi:namedview
     id="namedview8"
     pagecolor="#505050"
     bordercolor="#eeeeee"
     borderopacity="1"
     inkscape:pageshadow="0"
     inkscape:pageopacity="0"
     inkscape:pagecheckerboard="0"
     showgrid="false"
     inkscape:zoom="18.53125"
     inkscape:cx="15.973019"
     inkscape:cy="16"
     inkscape:window-width="1440"
     inkscape:window-height="843"
     inkscape:window-x="0"
     inkscape:window-y="32"
     inkscape:window-maximized="1"
     inkscape:current-layer="svg6"
     width="32px" />
  <g
     id="g899">
    <path
       d="M 27.638253,26.543431 19.744991,17.460514 15.910556,13.041179 15.026194,12.02603 C 16.075549,8.9271524 15.494773,5.2939858 13.270669,2.7370302 10.934369,0.04268609 7.4299193,-0.49160312 4.6250395,0.98914126 L 9.6474242,6.7747301 6.1429745,10.81243 1.0017949,5.0268411 c -1.39254028,3.2286334 -0.81176518,7.2663329 1.5245346,9.9606779 2.2175049,2.556955 5.3721697,3.228633 8.0582545,2.022666 l 0.950359,1.091476 -6.942902,8.029604 c -0.5015785,0.435064 -0.5015785,1.450214 0.1253946,2.030299 l 2.890676,3.335491 c 0.5015785,0.580086 1.260546,0.580086 1.7621245,0 l 6.3423279,-8.579158 7.484079,8.617322 c 0.46858,0.541922 1.16815,0.541922 1.63673,0 l 2.686085,-3.098878 c 0.587375,-0.541922 0.587375,-1.488377 0.118795,-1.89291 z"
       id="path2"
       style="fill:#000000;fill-opacity:1;stroke:none;stroke-width:0.0709744" />
    <path
       d="M 31.829073,13.048812 29.552171,10.44606 c -0.145194,-0.167919 -0.382784,-0.167919 -0.527978,0 l -0.244189,0.28241 -1.220948,-1.2059668 c 0,0 0.0792,-0.7632703 -0.323386,-1.4273154 C 26.826488,7.4311426 26.173116,6.5839126 25.704536,6.0419906 25.235956,5.5077014 23.454032,3.4545043 21.104533,2.1187813 18.748434,0.76779287 17.085305,0.18007474 15.10539,0.18007474 V 2.4469875 c 0,0 1.894119,1.2670287 2.976473,2.2669128 1.075753,0.9998841 1.108752,4.5414583 1.108752,4.5414583 l -1.880919,2.1753204 3.72884,4.281946 2.045912,-2.770671 c 0.851363,-0.267144 1.570733,-0.290043 1.993115,-0.0229 l 0.904161,1.01515 -0.633573,0.725106 c -0.145194,0.16792 -0.145194,0.435064 0,0.602984 l 2.276902,2.602752 c 0.145194,0.167919 0.382784,0.167919 0.527978,0 l 3.676042,-4.213252 c 0.138594,-0.16792 0.138594,-0.442697 0,-0.602984 z"
       id="path4"
       style="fill:#000000;fill-opacity:1;stroke:none;stroke-width:0.0709744" />
  </g>
</svg>
