<svg xmlns="http://www.w3.org/2000/svg" viewBox="0 0 24 24" width="100%" height="100%"><path d="M 2.0 4.0 L 10.0 4.0 L 12.0 7.0 L 22.0 7.0 L 22.0 20.0 L 2.0 20.0 Z M 3.5 8.5 L 20.5 8.5 L 20.5 18.5 L 3.5 18.5 Z M 3.5 5.5 L 8.5 5.5 L 11.2 7.0 L 3.5 7.0 Z" fill="#808080" fill-rule="evenodd" /><rect x="12" y="6" width="2.5" height="8" fill="#F0F4E0" rx="0.5" ry="0.5" /><rect x="10" y="12" width="6.5" height="4" fill="#F0F4E0" rx="1.0" ry="1.0" /><rect x="12" y="6" width="2.5" height="8" fill="#F0F4E0" rx="0.5" ry="0.5" /><rect x="10" y="12" width="6.5" height="4" fill="#F0F4E0" rx="1.0" ry="1.0" /><rect x="12" y="6" width="2.5" height="8" fill="#F0F4E0" rx="0.5" ry="0.5" /><rect x="10" y="12" width="6.5" height="4" fill="#F0F4E0" rx="1.0" ry="1.0" /><rect x="12" y="6" width="2.5" height="8" fill="#F0F4E0" rx="0.5" ry="0.5" /><rect x="10" y="12" width="6.5" height="4" fill="#F0F4E0" rx="1.0" ry="1.0" /><rect x="12" y="6" width="2.5" height="8" fill="#F0F4E0" rx="0.5" ry="0.5" /><rect x="10" y="12" width="6.5" height="4" fill="#F0F4E0" rx="1.0" ry="1.0" /><rect x="12" y="6" width="2.5" height="8" fill="#F0F4E0" rx="0.5" ry="0.5" /><rect x="10" y="12" width="6.5" height="4" fill="#F0F4E0" rx="1.0" ry="1.0" /><rect x="12" y="6" width="2.5" height="8" fill="#F0F4E0" rx="0.5" ry="0.5" /><rect x="10" y="12" width="6.5" height="4" fill="#F0F4E0" rx="1.0" ry="1.0" /><rect x="12" y="6" width="2.5" height="8" fill="#F0F4E0" rx="0.5" ry="0.5" /><rect x="10" y="12" width="6.5" height="4" fill="#F0F4E0" rx="1.0" ry="1.0" /><rect x="12" y="6" width="2.5" height="8" fill="#1A2010" rx="0.5" ry="0.5" /><rect x="10" y="12" width="6.5" height="4" fill="#F4B400" rx="1.0" ry="1.0" /></svg>