<svg xmlns="http://www.w3.org/2000/svg" viewBox="0 0 24 24" width="100%" height="100%"><path d="M 2.0 2 L 10.0 2 L 12.0 5 L 22.0 5 L 22.0 18 L 2.0 18 Z M 3.5 6.5 L 20.5 6.5 L 20.5 16.5 L 3.5 16.5 Z M 3.5 3.5 L 8.5 3.5 L 11.2 5 L 3.5 5 Z" fill="#1A2010" fill-rule="evenodd" /><path d="M 2.0 6 L 10.0 6 L 12.0 9 L 22.0 9 L 22.0 22 L 2.0 22 Z M 3.5 10.5 L 20.5 10.5 L 20.5 20.5 L 3.5 20.5 Z M 3.5 7.5 L 8.5 7.5 L 11.2 9 L 3.5 9 Z" fill="#F0F4E0" fill-rule="evenodd" /><path d="M 2.0 6 L 10.0 6 L 12.0 9 L 22.0 9 L 22.0 22 L 2.0 22 Z M 3.5 10.5 L 20.5 10.5 L 20.5 20.5 L 3.5 20.5 Z M 3.5 7.5 L 8.5 7.5 L 11.2 9 L 3.5 9 Z" fill="#F0F4E0" fill-rule="evenodd" /><path d="M 2.0 6 L 10.0 6 L 12.0 9 L 22.0 9 L 22.0 22 L 2.0 22 Z M 3.5 10.5 L 20.5 10.5 L 20.5 20.5 L 3.5 20.5 Z M 3.5 7.5 L 8.5 7.5 L 11.2 9 L 3.5 9 Z" fill="#F0F4E0" fill-rule="evenodd" /><path d="M 2.0 6 L 10.0 6 L 12.0 9 L 22.0 9 L 22.0 22 L 2.0 22 Z M 3.5 10.5 L 20.5 10.5 L 20.5 20.5 L 3.5 20.5 Z M 3.5 7.5 L 8.5 7.5 L 11.2 9 L 3.5 9 Z" fill="#F0F4E0" fill-rule="evenodd" /><path d="M 2.0 6 L 10.0 6 L 12.0 9 L 22.0 9 L 22.0 22 L 2.0 22 Z M 3.5 10.5 L 20.5 10.5 L 20.5 20.5 L 3.5 20.5 Z M 3.5 7.5 L 8.5 7.5 L 11.2 9 L 3.5 9 Z" fill="#F0F4E0" fill-rule="evenodd" /><path d="M 2.0 6 L 10.0 6 L 12.0 9 L 22.0 9 L 22.0 22 L 2.0 22 Z M 3.5 10.5 L 20.5 10.5 L 20.5 20.5 L 3.5 20.5 Z M 3.5 7.5 L 8.5 7.5 L 11.2 9 L 3.5 9 Z" fill="#F0F4E0" fill-rule="evenodd" /><path d="M 2.0 6 L 10.0 6 L 12.0 9 L 22.0 9 L 22.0 22 L 2.0 22 Z M 3.5 10.5 L 20.5 10.5 L 20.5 20.5 L 3.5 20.5 Z M 3.5 7.5 L 8.5 7.5 L 11.2 9 L 3.5 9 Z" fill="#F0F4E0" fill-rule="evenodd" /><path d="M 2.0 6 L 10.0 6 L 12.0 9 L 22.0 9 L 22.0 22 L 2.0 22 Z M 3.5 10.5 L 20.5 10.5 L 20.5 20.5 L 3.5 20.5 Z M 3.5 7.5 L 8.5 7.5 L 11.2 9 L 3.5 9 Z" fill="#F0F4E0" fill-rule="evenodd" /><path d="M 2.0 6 L 10.0 6 L 12.0 9 L 22.0 9 L 22.0 22 L 2.0 22 Z M 3.5 10.5 L 20.5 10.5 L 20.5 20.5 L 3.5 20.5 Z M 3.5 7.5 L 8.5 7.5 L 11.2 9 L 3.5 9 Z" fill="#1A2010" fill-rule="evenodd" /><rect x="14" y="16.25" width="6" height="1.5" fill="#F0F4E0" rx="0.4" ry="0.4" /><rect x="16.25" y="14" width="1.5" height="6" fill="#F0F4E0" rx="0.4" ry="0.4" /><rect x="14" y="16.25" width="6" height="1.5" fill="#F0F4E0" rx="0.4" ry="0.4" /><rect x="16.25" y="14" width="1.5" height="6" fill="#F0F4E0" rx="0.4" ry="0.4" /><rect x="14" y="16.25" width="6" height="1.5" fill="#F0F4E0" rx="0.4" ry="0.4" /><rect x="16.25" y="14" width="1.5" height="6" fill="#F0F4E0" rx="0.4" ry="0.4" /><rect x="14" y="16.25" width="6" height="1.5" fill="#F0F4E0" rx="0.4" ry="0.4" /><rect x="16.25" y="14" width="1.5" height="6" fill="#F0F4E0" rx="0.4" ry="0.4" /><rect x="14" y="16.25" width="6" height="1.5" fill="#F0F4E0" rx="0.4" ry="0.4" /><rect x="16.25" y="14" width="1.5" height="6" fill="#F0F4E0" rx="0.4" ry="0.4" /><rect x="14" y="16.25" width="6" height="1.5" fill="#F0F4E0" rx="0.4" ry="0.4" /><rect x="16.25" y="14" width="1.5" height="6" fill="#F0F4E0" rx="0.4" ry="0.4" /><rect x="14" y="16.25" width="6" height="1.5" fill="#F0F4E0" rx="0.4" ry="0.4" /><rect x="16.25" y="14" width="1.5" height="6" fill="#F0F4E0" rx="0.4" ry="0.4" /><rect x="14" y="16.25" width="6" height="1.5" fill="#F0F4E0" rx="0.4" ry="0.4" /><rect x="16.25" y="14" width="1.5" height="6" fill="#F0F4E0" rx="0.4" ry="0.4" /><rect x="14" y="16.25" width="6" height="1.5" fill="#5D7400" rx="0.4" ry="0.4" /><rect x="16.25" y="14" width="1.5" height="6" fill="#5D7400" rx="0.4" ry="0.4" /></svg>