<?xml version="1.0" encoding="UTF-8" standalone="no"?>
<svg
   width="32"
   height="32"
   viewBox="0 0 32 32"
   version="1.1"
   id="svg_refresh"
   xmlns="http://www.w3.org/2000/svg">
  <!-- Upper arrow -->
  <path d="M 16,4 C 21.5,4 26,8.5 26,14 L 26,16 L 29,13 L 26,10 L 26,14 C 26,9.5 21.5,6 16,6 C 11.5,6 7.5,9 6.5,13 L 4.2,12 C 5.5,7 10.5,4 16,4 Z" fill="#000000" stroke="#000000" stroke-width="0.5" />
  <!-- Lower arrow -->
  <path d="M 16,28 C 10.5,28 6,23.5 6,18 L 6,16 L 3,19 L 6,22 L 6,18 C 6,22.5 10.5,26 16,26 C 20.5,26 24.5,23 25.5,19 L 27.8,20 C 26.5,25 21.5,28 16,28 Z" fill="#de1010" stroke="#de1010" stroke-width="0.5" />
</svg>
