<svg xmlns="http://www.w3.org/2000/svg" viewBox="0 0 24 24" width="100%" height="100%"><path d="M 12 4 C 16.42 4, 20 7.58, 20 12 L 18.5 12 C 18.5 8.41, 15.59 5.5, 12 5.5 C 8.41 5.5, 5.5 8.41, 5.5 12 L 4 12 C 4 7.58, 7.58 4, 12 4 Z" fill="#5D7400" /><path d="M 12 20 C 7.58 20, 4 16.42, 4 12 L 5.5 12 C 5.5 15.59, 8.41 18.5, 12 18.5 C 15.59 18.5, 18.5 15.59, 18.5 12 L 20 12 C 20 16.42, 16.42 20, 12 20 Z" fill="#5D7400" /><path d="M 2 12 L 4.75 15.5 L 7.5 12 Z" fill="#5D7400" /><path d="M 16.5 12 L 19.25 8.5 L 22 12 Z" fill="#5D7400" /></svg>