<svg xmlns="http://www.w3.org/2000/svg" viewBox="0 0 24 24" width="100%" height="100%"><path d="M 5.0 3.0 L 15.0 3.0 L 19.0 7.0 L 19.0 21.0 L 5.0 21.0 Z M 6.5 4.5 L 6.5 19.5 L 17.5 19.5 L 17.5 7.75 L 14.25 4.5 Z" fill="#1A2010" fill-rule="evenodd" /><rect x="8" y="7" width="6" height="1.0" fill="#F0F4E0" /><rect x="8" y="10" width="8" height="1.0" fill="#F0F4E0" /><rect x="8" y="13" width="8" height="1.0" fill="#F0F4E0" /><rect x="8" y="7" width="6" height="1.0" fill="#F0F4E0" /><rect x="8" y="10" width="8" height="1.0" fill="#F0F4E0" /><rect x="8" y="13" width="8" height="1.0" fill="#F0F4E0" /><rect x="8" y="7" width="6" height="1.0" fill="#F0F4E0" /><rect x="8" y="10" width="8" height="1.0" fill="#F0F4E0" /><rect x="8" y="13" width="8" height="1.0" fill="#F0F4E0" /><rect x="8" y="7" width="6" height="1.0" fill="#F0F4E0" /><rect x="8" y="10" width="8" height="1.0" fill="#F0F4E0" /><rect x="8" y="13" width="8" height="1.0" fill="#F0F4E0" /><rect x="8" y="7" width="6" height="1.0" fill="#F0F4E0" /><rect x="8" y="10" width="8" height="1.0" fill="#F0F4E0" /><rect x="8" y="13" width="8" height="1.0" fill="#F0F4E0" /><rect x="8" y="7" width="6" height="1.0" fill="#F0F4E0" /><rect x="8" y="10" width="8" height="1.0" fill="#F0F4E0" /><rect x="8" y="13" width="8" height="1.0" fill="#F0F4E0" /><rect x="8" y="7" width="6" height="1.0" fill="#F0F4E0" /><rect x="8" y="10" width="8" height="1.0" fill="#F0F4E0" /><rect x="8" y="13" width="8" height="1.0" fill="#F0F4E0" /><rect x="8" y="7" width="6" height="1.0" fill="#F0F4E0" /><rect x="8" y="10" width="8" height="1.0" fill="#F0F4E0" /><rect x="8" y="13" width="8" height="1.0" fill="#F0F4E0" /><rect x="8" y="7" width="6" height="1.0" fill="#808080" /><rect x="8" y="10" width="8" height="1.0" fill="#808080" /><rect x="8" y="13" width="8" height="1.0" fill="#808080" /><path d="M 14 18 L 18 14 L 21 17 L 17 21 Z" fill="#F0F4E0" /><path d="M 13 19 L 14 18 L 13 21 Z" fill="#F0F4E0" /><path d="M 14 18 L 18 14 L 21 17 L 17 21 Z" fill="#F0F4E0" /><path d="M 13 19 L 14 18 L 13 21 Z" fill="#F0F4E0" /><path d="M 14 18 L 18 14 L 21 17 L 17 21 Z" fill="#F0F4E0" /><path d="M 13 19 L 14 18 L 13 21 Z" fill="#F0F4E0" /><path d="M 14 18 L 18 14 L 21 17 L 17 21 Z" fill="#F0F4E0" /><path d="M 13 19 L 14 18 L 13 21 Z" fill="#F0F4E0" /><path d="M 14 18 L 18 14 L 21 17 L 17 21 Z" fill="#F0F4E0" /><path d="M 13 19 L 14 18 L 13 21 Z" fill="#F0F4E0" /><path d="M 14 18 L 18 14 L 21 17 L 17 21 Z" fill="#F0F4E0" /><path d="M 13 19 L 14 18 L 13 21 Z" fill="#F0F4E0" /><path d="M 14 18 L 18 14 L 21 17 L 17 21 Z" fill="#F0F4E0" /><path d="M 13 19 L 14 18 L 13 21 Z" fill="#F0F4E0" /><path d="M 14 18 L 18 14 L 21 17 L 17 21 Z" fill="#F0F4E0" /><path d="M 13 19 L 14 18 L 13 21 Z" fill="#F0F4E0" /><path d="M 14 18 L 18 14 L 21 17 L 17 21 Z" fill="#5D7400" /><path d="M 13 19 L 14 18 L 13 21 Z" fill="#1A2010" /></svg>