<svg xmlns="http://www.w3.org/2000/svg" viewBox="0 0 24 24" width="100%" height="100%"><rect x="3.0" y="6.0" width="18" height="1.5" fill="#1A2010" rx="0.4" ry="0.4" /><rect x="6.0" y="11.0" width="15" height="1.5" fill="#1A2010" rx="0.4" ry="0.4" /><rect x="9.0" y="16.0" width="12" height="1.5" fill="#1A2010" rx="0.4" ry="0.4" /><rect x="3.0" y="6.0" width="1.5" height="11.5" fill="#1A2010" rx="0.4" ry="0.4" /><rect x="15" y="6" width="1.0" height="12" fill="#F0F4E0" /><rect x="18" y="6" width="1.0" height="12" fill="#F0F4E0" /><rect x="13" y="9" width="7" height="1.0" fill="#F0F4E0" /><rect x="13" y="13" width="7" height="1.0" fill="#F0F4E0" /><rect x="15" y="6" width="1.0" height="12" fill="#F0F4E0" /><rect x="18" y="6" width="1.0" height="12" fill="#F0F4E0" /><rect x="13" y="9" width="7" height="1.0" fill="#F0F4E0" /><rect x="13" y="13" width="7" height="1.0" fill="#F0F4E0" /><rect x="15" y="6" width="1.0" height="12" fill="#F0F4E0" /><rect x="18" y="6" width="1.0" height="12" fill="#F0F4E0" /><rect x="13" y="9" width="7" height="1.0" fill="#F0F4E0" /><rect x="13" y="13" width="7" height="1.0" fill="#F0F4E0" /><rect x="15" y="6" width="1.0" height="12" fill="#F0F4E0" /><rect x="18" y="6" width="1.0" height="12" fill="#F0F4E0" /><rect x="13" y="9" width="7" height="1.0" fill="#F0F4E0" /><rect x="13" y="13" width="7" height="1.0" fill="#F0F4E0" /><rect x="15" y="6" width="1.0" height="12" fill="#F0F4E0" /><rect x="18" y="6" width="1.0" height="12" fill="#F0F4E0" /><rect x="13" y="9" width="7" height="1.0" fill="#F0F4E0" /><rect x="13" y="13" width="7" height="1.0" fill="#F0F4E0" /><rect x="15" y="6" width="1.0" height="12" fill="#F0F4E0" /><rect x="18" y="6" width="1.0" height="12" fill="#F0F4E0" /><rect x="13" y="9" width="7" height="1.0" fill="#F0F4E0" /><rect x="13" y="13" width="7" height="1.0" fill="#F0F4E0" /><rect x="15" y="6" width="1.0" height="12" fill="#F0F4E0" /><rect x="18" y="6" width="1.0" height="12" fill="#F0F4E0" /><rect x="13" y="9" width="7" height="1.0" fill="#F0F4E0" /><rect x="13" y="13" width="7" height="1.0" fill="#F0F4E0" /><rect x="15" y="6" width="1.0" height="12" fill="#F0F4E0" /><rect x="18" y="6" width="1.0" height="12" fill="#F0F4E0" /><rect x="13" y="9" width="7" height="1.0" fill="#F0F4E0" /><rect x="13" y="13" width="7" height="1.0" fill="#F0F4E0" /><rect x="15" y="6" width="1.0" height="12" fill="#F4B400" /><rect x="18" y="6" width="1.0" height="12" fill="#F4B400" /><rect x="13" y="9" width="7" height="1.0" fill="#F4B400" /><rect x="13" y="13" width="7" height="1.0" fill="#F4B400" /></svg>