<svg xmlns="http://www.w3.org/2000/svg" viewBox="0 0 24 24" width="100%" height="100%"><rect x="3.0" y="6.0" width="18" height="1.5" fill="#1A2010" rx="0.4" ry="0.4" /><rect x="6.0" y="11.0" width="15" height="1.5" fill="#1A2010" rx="0.4" ry="0.4" /><rect x="9.0" y="16.0" width="12" height="1.5" fill="#1A2010" rx="0.4" ry="0.4" /><rect x="3.0" y="6.0" width="1.5" height="11.5" fill="#1A2010" rx="0.4" ry="0.4" /><rect x="15" y="15.25" width="6" height="1.5" fill="#F0F4E0" rx="0.4" ry="0.4" /><rect x="17.25" y="13" width="1.5" height="6" fill="#F0F4E0" rx="0.4" ry="0.4" /><rect x="15" y="15.25" width="6" height="1.5" fill="#F0F4E0" rx="0.4" ry="0.4" /><rect x="17.25" y="13" width="1.5" height="6" fill="#F0F4E0" rx="0.4" ry="0.4" /><rect x="15" y="15.25" width="6" height="1.5" fill="#F0F4E0" rx="0.4" ry="0.4" /><rect x="17.25" y="13" width="1.5" height="6" fill="#F0F4E0" rx="0.4" ry="0.4" /><rect x="15" y="15.25" width="6" height="1.5" fill="#F0F4E0" rx="0.4" ry="0.4" /><rect x="17.25" y="13" width="1.5" height="6" fill="#F0F4E0" rx="0.4" ry="0.4" /><rect x="15" y="15.25" width="6" height="1.5" fill="#F0F4E0" rx="0.4" ry="0.4" /><rect x="17.25" y="13" width="1.5" height="6" fill="#F0F4E0" rx="0.4" ry="0.4" /><rect x="15" y="15.25" width="6" height="1.5" fill="#F0F4E0" rx="0.4" ry="0.4" /><rect x="17.25" y="13" width="1.5" height="6" fill="#F0F4E0" rx="0.4" ry="0.4" /><rect x="15" y="15.25" width="6" height="1.5" fill="#F0F4E0" rx="0.4" ry="0.4" /><rect x="17.25" y="13" width="1.5" height="6" fill="#F0F4E0" rx="0.4" ry="0.4" /><rect x="15" y="15.25" width="6" height="1.5" fill="#F0F4E0" rx="0.4" ry="0.4" /><rect x="17.25" y="13" width="1.5" height="6" fill="#F0F4E0" rx="0.4" ry="0.4" /><rect x="15" y="15.25" width="6" height="1.5" fill="#5D7400" rx="0.4" ry="0.4" /><rect x="17.25" y="13" width="1.5" height="6" fill="#5D7400" rx="0.4" ry="0.4" /></svg>