<svg xmlns="http://www.w3.org/2000/svg" viewBox="0 0 24 24" width="100%" height="100%"><rect x="3.0" y="6.0" width="18" height="1.5" fill="#1A2010" rx="0.4" ry="0.4" /><rect x="6.0" y="11.0" width="15" height="1.5" fill="#1A2010" rx="0.4" ry="0.4" /><rect x="9.0" y="16.0" width="12" height="1.5" fill="#1A2010" rx="0.4" ry="0.4" /><rect x="3.0" y="6.0" width="1.5" height="11.5" fill="#1A2010" rx="0.4" ry="0.4" /><path d="M 16 11 C 14 11, 13 12.5, 13 15 C 13 17.5, 14 19, 16 19 C 18 19, 19 17.5, 19 15 C 19 12.5, 18 11, 16 11 Z M 16 12.0 C 14.8 12.0, 14 12.5, 14 15 C 14 17.5, 14.8 18.0, 16 18.0 C 17.2 18.0, 18 17.5, 18 15 C 18 12.5, 17.2 12.0, 16 12.0 Z" fill="#F0F4E0" fill-rule="evenodd" /><path d="M 13.5 18.5 L 18.5 11.5 L 19.5 12.2 L 14.5 19.2 Z" fill="#F0F4E0" /><path d="M 16 11 C 14 11, 13 12.5, 13 15 C 13 17.5, 14 19, 16 19 C 18 19, 19 17.5, 19 15 C 19 12.5, 18 11, 16 11 Z M 16 12.0 C 14.8 12.0, 14 12.5, 14 15 C 14 17.5, 14.8 18.0, 16 18.0 C 17.2 18.0, 18 17.5, 18 15 C 18 12.5, 17.2 12.0, 16 12.0 Z" fill="#F0F4E0" fill-rule="evenodd" /><path d="M 13.5 18.5 L 18.5 11.5 L 19.5 12.2 L 14.5 19.2 Z" fill="#F0F4E0" /><path d="M 16 11 C 14 11, 13 12.5, 13 15 C 13 17.5, 14 19, 16 19 C 18 19, 19 17.5, 19 15 C 19 12.5, 18 11, 16 11 Z M 16 12.0 C 14.8 12.0, 14 12.5, 14 15 C 14 17.5, 14.8 18.0, 16 18.0 C 17.2 18.0, 18 17.5, 18 15 C 18 12.5, 17.2 12.0, 16 12.0 Z" fill="#F0F4E0" fill-rule="evenodd" /><path d="M 13.5 18.5 L 18.5 11.5 L 19.5 12.2 L 14.5 19.2 Z" fill="#F0F4E0" /><path d="M 16 11 C 14 11, 13 12.5, 13 15 C 13 17.5, 14 19, 16 19 C 18 19, 19 17.5, 19 15 C 19 12.5, 18 11, 16 11 Z M 16 12.0 C 14.8 12.0, 14 12.5, 14 15 C 14 17.5, 14.8 18.0, 16 18.0 C 17.2 18.0, 18 17.5, 18 15 C 18 12.5, 17.2 12.0, 16 12.0 Z" fill="#F0F4E0" fill-rule="evenodd" /><path d="M 13.5 18.5 L 18.5 11.5 L 19.5 12.2 L 14.5 19.2 Z" fill="#F0F4E0" /><path d="M 16 11 C 14 11, 13 12.5, 13 15 C 13 17.5, 14 19, 16 19 C 18 19, 19 17.5, 19 15 C 19 12.5, 18 11, 16 11 Z M 16 12.0 C 14.8 12.0, 14 12.5, 14 15 C 14 17.5, 14.8 18.0, 16 18.0 C 17.2 18.0, 18 17.5, 18 15 C 18 12.5, 17.2 12.0, 16 12.0 Z" fill="#F0F4E0" fill-rule="evenodd" /><path d="M 13.5 18.5 L 18.5 11.5 L 19.5 12.2 L 14.5 19.2 Z" fill="#F0F4E0" /><path d="M 16 11 C 14 11, 13 12.5, 13 15 C 13 17.5, 14 19, 16 19 C 18 19, 19 17.5, 19 15 C 19 12.5, 18 11, 16 11 Z M 16 12.0 C 14.8 12.0, 14 12.5, 14 15 C 14 17.5, 14.8 18.0, 16 18.0 C 17.2 18.0, 18 17.5, 18 15 C 18 12.5, 17.2 12.0, 16 12.0 Z" fill="#F0F4E0" fill-rule="evenodd" /><path d="M 13.5 18.5 L 18.5 11.5 L 19.5 12.2 L 14.5 19.2 Z" fill="#F0F4E0" /><path d="M 16 11 C 14 11, 13 12.5, 13 15 C 13 17.5, 14 19, 16 19 C 18 19, 19 17.5, 19 15 C 19 12.5, 18 11, 16 11 Z M 16 12.0 C 14.8 12.0, 14 12.5, 14 15 C 14 17.5, 14.8 18.0, 16 18.0 C 17.2 18.0, 18 17.5, 18 15 C 18 12.5, 17.2 12.0, 16 12.0 Z" fill="#F0F4E0" fill-rule="evenodd" /><path d="M 13.5 18.5 L 18.5 11.5 L 19.5 12.2 L 14.5 19.2 Z" fill="#F0F4E0" /><path d="M 16 11 C 14 11, 13 12.5, 13 15 C 13 17.5, 14 19, 16 19 C 18 19, 19 17.5, 19 15 C 19 12.5, 18 11, 16 11 Z M 16 12.0 C 14.8 12.0, 14 12.5, 14 15 C 14 17.5, 14.8 18.0, 16 18.0 C 17.2 18.0, 18 17.5, 18 15 C 18 12.5, 17.2 12.0, 16 12.0 Z" fill="#F0F4E0" fill-rule="evenodd" /><path d="M 13.5 18.5 L 18.5 11.5 L 19.5 12.2 L 14.5 19.2 Z" fill="#F0F4E0" /><path d="M 16 11 C 14 11, 13 12.5, 13 15 C 13 17.5, 14 19, 16 19 C 18 19, 19 17.5, 19 15 C 19 12.5, 18 11, 16 11 Z M 16 12.0 C 14.8 12.0, 14 12.5, 14 15 C 14 17.5, 14.8 18.0, 16 18.0 C 17.2 18.0, 18 17.5, 18 15 C 18 12.5, 17.2 12.0, 16 12.0 Z" fill="#FF4D2E" fill-rule="evenodd" /><path d="M 13.5 18.5 L 18.5 11.5 L 19.5 12.2 L 14.5 19.2 Z" fill="#FF4D2E" /></svg>